<?xml version="1.0" encoding="UTF-8" standalone="no"?>
<!-- Created with Inkscape (http://www.inkscape.org/) -->

<svg
   xmlns:dc="http://purl.org/dc/elements/1.1/"
   xmlns:cc="http://creativecommons.org/ns#"
   xmlns:rdf="http://www.w3.org/1999/02/22-rdf-syntax-ns#"
   xmlns:svg="http://www.w3.org/2000/svg"
   xmlns="http://www.w3.org/2000/svg"
   xmlns:sodipodi="http://sodipodi.sourceforge.net/DTD/sodipodi-0.dtd"
   xmlns:inkscape="http://www.inkscape.org/namespaces/inkscape"
   width="1052.3622"
   height="744.09448"
   id="svg4118"
   version="1.1"
   inkscape:version="0.48.3.1 r9886"
   sodipodi:docname="pacman_organic.pdf">
  <defs
     id="defs4120">
    <linearGradient
       id="linearGradient4750">
      <stop
         style="stop-color:#000000;stop-opacity:1;"
         offset="0"
         id="stop4752" />
      <stop
         style="stop-color:#000000;stop-opacity:0;"
         offset="1"
         id="stop4754" />
    </linearGradient>
    <linearGradient
       id="linearGradient4708">
      <stop
         id="stop4710"
         offset="0"
         style="stop-color:#000000;stop-opacity:1;" />
      <stop
         id="stop4712"
         offset="1"
         style="stop-color:#999999;stop-opacity:1" />
    </linearGradient>
    <linearGradient
       id="linearGradient4688">
      <stop
         style="stop-color:#000000;stop-opacity:1;"
         offset="0"
         id="stop4690" />
      <stop
         style="stop-color:#000000;stop-opacity:0;"
         offset="1"
         id="stop4692" />
    </linearGradient>
    <filter
       inkscape:collect="always"
       id="filter4744"
       x="-0.51660001"
       width="2.0332"
       y="-0.25830001"
       height="1.5166"
       color-interpolation-filters="sRGB">
      <feGaussianBlur
         inkscape:collect="always"
         stdDeviation="3.3825"
         id="feGaussianBlur4746" />
    </filter>
  </defs>
  <sodipodi:namedview
     id="base"
     pagecolor="#ffffff"
     bordercolor="#666666"
     borderopacity="1.0"
     inkscape:pageopacity="0.0"
     inkscape:pageshadow="2"
     inkscape:zoom="0.7"
     inkscape:cx="569.50365"
     inkscape:cy="423.75326"
     inkscape:document-units="px"
     inkscape:current-layer="layer1"
     showgrid="false"
     inkscape:window-width="1920"
     inkscape:window-height="1021"
     inkscape:window-x="0"
     inkscape:window-y="27"
     inkscape:window-maximized="1" />
  <metadata
     id="metadata4123">
    <rdf:RDF>
      <cc:Work
         rdf:about="">
        <dc:format>image/svg+xml</dc:format>
        <dc:type
           rdf:resource="http://purl.org/dc/dcmitype/StillImage" />
        <dc:title></dc:title>
      </cc:Work>
    </rdf:RDF>
  </metadata>
  <g
     inkscape:label="Layer 1"
     inkscape:groupmode="layer"
     id="layer1"
     transform="translate(0,-308.2677)">
    <path
       sodipodi:type="arc"
       style="opacity:0.51851849;fill:#ffffff;fill-opacity:1;fill-rule:nonzero;stroke:#ffffff;stroke-width:1;stroke-linecap:square;stroke-linejoin:round;stroke-miterlimit:4;stroke-opacity:1;stroke-dasharray:none;filter:url(#filter4744)"
       id="path4738"
       sodipodi:cx="428.57144"
       sodipodi:cy="485.21933"
       sodipodi:rx="7.8571429"
       sodipodi:ry="15.714286"
       d="m 436.42858,485.21933 c 0,8.67876 -3.51776,15.71429 -7.85714,15.71429 -4.33938,0 -7.85714,-7.03553 -7.85714,-15.71429 0,-8.67876 3.51776,-15.71429 7.85714,-15.71429 4.33938,0 7.85714,7.03553 7.85714,15.71429 z"
       transform="matrix(0.73332614,0.67987703,-0.67987703,0.73332614,444.17828,-161.98057)" />
    <g
       id="g3148"
       transform="matrix(0.91470895,0,0,0.91470895,152.70373,314.10303)">
      <g
         transform="translate(6,0)"
         id="g4824">
        <path
           style="fill:#0000ff;fill-opacity:1;fill-rule:nonzero;stroke:#0000ff;stroke-width:1;stroke-linecap:square;stroke-linejoin:round;stroke-miterlimit:4;stroke-opacity:1"
           d="m 457.14285,392.36218 c 0,2.99333 -0.1096,68.08545 -0.325,71.0238 -3.17182,26.9899 -12.68842,42.31904 -37.81484,47.78246 -10.71972,2.23964 -23.27465,-40.39341 -37.10471,-40.65489 -13.83006,-0.26147 -28.93524,41.84863 -44.75545,41.84863 -15.73203,0 -30.75699,-42.07607 -44.52408,-41.75585 -13.76709,0.32023 -26.27632,43.03674 -36.9769,40.89599 -27.04984,-6.52579 -35.99427,-23.79982 -38.09347,-47.07889 -0.2686,-3.27677 -0.40555,-68.71521 -0.40555,-72.06125 0,-66.27417 53.72583,-120 120,-120 66.27417,0 120,53.72583 120,120 z"
           id="path4126"
           inkscape:connector-curvature="0"
           sodipodi:nodetypes="sccsssccsss" />
        <g
           id="g4152">
          <path
             d="m 423.25393,356.87216 c 0,13.66835 -11.08039,24.74874 -24.74874,24.74874 -13.66835,0 -24.74874,-11.08039 -24.74874,-24.74874 0,-13.66835 11.08039,-24.74874 24.74874,-24.74874 13.66835,0 24.74874,11.08039 24.74874,24.74874 z"
             sodipodi:ry="24.748737"
             sodipodi:rx="24.748737"
             sodipodi:cy="356.87216"
             sodipodi:cx="398.50519"
             id="path4148"
             style="fill:#ffffff;fill-opacity:1;fill-rule:nonzero;stroke:#ffffff;stroke-width:1;stroke-linecap:square;stroke-linejoin:round;stroke-miterlimit:4;stroke-opacity:1;stroke-dasharray:none"
             sodipodi:type="arc" />
          <path
             transform="translate(2.0203051,-2.0203051)"
             d="m 415.17269,366.4686 c 0,7.25259 -5.87939,13.13198 -13.13198,13.13198 -7.25259,0 -13.13198,-5.87939 -13.13198,-13.13198 0,-7.2526 5.87939,-13.13199 13.13198,-13.13199 7.25259,0 13.13198,5.87939 13.13198,13.13199 z"
             sodipodi:ry="13.131983"
             sodipodi:rx="13.131983"
             sodipodi:cy="366.4686"
             sodipodi:cx="402.04071"
             id="path4150"
             style="fill:#000000;fill-opacity:1;fill-rule:nonzero;stroke:#000000;stroke-width:1;stroke-linecap:square;stroke-linejoin:round;stroke-miterlimit:4;stroke-opacity:1;stroke-dasharray:none"
             sodipodi:type="arc" />
        </g>
        <g
           id="g4156"
           transform="translate(-64,0)">
          <path
             sodipodi:type="arc"
             style="fill:#ffffff;fill-opacity:1;fill-rule:nonzero;stroke:#ffffff;stroke-width:1;stroke-linecap:square;stroke-linejoin:round;stroke-miterlimit:4;stroke-opacity:1;stroke-dasharray:none"
             id="path4158"
             sodipodi:cx="398.50519"
             sodipodi:cy="356.87216"
             sodipodi:rx="24.748737"
             sodipodi:ry="24.748737"
             d="m 423.25393,356.87216 c 0,13.66835 -11.08039,24.74874 -24.74874,24.74874 -13.66835,0 -24.74874,-11.08039 -24.74874,-24.74874 0,-13.66835 11.08039,-24.74874 24.74874,-24.74874 13.66835,0 24.74874,11.08039 24.74874,24.74874 z" />
          <path
             sodipodi:type="arc"
             style="fill:#000000;fill-opacity:1;fill-rule:nonzero;stroke:#000000;stroke-width:1;stroke-linecap:square;stroke-linejoin:round;stroke-miterlimit:4;stroke-opacity:1;stroke-dasharray:none"
             id="path4160"
             sodipodi:cx="402.04071"
             sodipodi:cy="366.4686"
             sodipodi:rx="13.131983"
             sodipodi:ry="13.131983"
             d="m 415.17269,366.4686 c 0,7.25259 -5.87939,13.13198 -13.13198,13.13198 -7.25259,0 -13.13198,-5.87939 -13.13198,-13.13198 0,-7.2526 5.87939,-13.13199 13.13198,-13.13199 7.25259,0 13.13198,5.87939 13.13198,13.13199 z"
             transform="translate(2.0203051,-2.0203051)" />
        </g>
      </g>
      <flowRoot
         transform="translate(-15.714286,-7.1428571)"
         style="font-size:40px;font-style:normal;font-weight:normal;line-height:125%;letter-spacing:0px;word-spacing:0px;fill:#ffffff;fill-opacity:1;stroke:none;font-family:Sans"
         id="flowRoot4851"
         xml:space="preserve"><flowRegion
           id="flowRegion4853"><rect
             style="fill:#ffffff"
             y="400.93362"
             x="264.28571"
             height="182.85715"
             width="298.57144"
             id="rect4855" /></flowRegion><flowPara
           id="flowPara4857">{\Large\textbf{OH}}</flowPara></flowRoot>    </g>
    <path
       sodipodi:type="arc"
       style="fill:#ffcc00;fill-opacity:1;fill-rule:nonzero;stroke:#ffcc00;stroke-width:1;stroke-linecap:square;stroke-linejoin:round;stroke-miterlimit:4;stroke-opacity:1;stroke-dasharray:none"
       id="path3162"
       sodipodi:cx="812.85712"
       sodipodi:cy="184.09448"
       sodipodi:rx="61.42857"
       sodipodi:ry="61.42857"
       d="m 856.29368,227.53104 c -23.98935,23.98935 -62.88377,23.98935 -86.87312,0 -23.98935,-23.98935 -23.98935,-62.88377 0,-86.87312 23.98935,-23.98934 62.88377,-23.98934 86.87311,0 11.5201,11.5201 17.99202,27.14469 17.99202,43.43656 l -61.42857,0 z"
       transform="matrix(-0.72843867,1.0531557,-1.1667297,-0.75326691,1476.8983,-134.17361)"
       sodipodi:start="0.78539816"
       sodipodi:end="6.2831853" />
    <flowRoot
       xml:space="preserve"
       id="flowRoot3164"
       style="font-size:40px;font-style:normal;font-weight:normal;line-height:125%;letter-spacing:0px;word-spacing:0px;fill:#000000;fill-opacity:1;stroke:none;font-family:Sans"
       transform="translate(-1.4285714,338.83913)"><flowRegion
         id="flowRegion3166"><rect
           id="rect3168"
           width="277.14288"
           height="97.142876"
           x="640"
           y="198.3802" /></flowRegion><flowPara
         id="flowPara3170">{\textbf{\ce{CH4}}}</flowPara></flowRoot>    <path
       sodipodi:end="6.2831853"
       sodipodi:start="0.78539816"
       transform="matrix(-1.2762802,-0.104254,0.06896766,-1.3870518,1716.7269,1141.3082)"
       d="m 856.29368,227.53104 c -23.98935,23.98935 -62.88377,23.98935 -86.87312,0 -23.98935,-23.98935 -23.98935,-62.88377 0,-86.87312 23.98935,-23.98934 62.88377,-23.98934 86.87311,0 11.5201,11.5201 17.99202,27.14469 17.99202,43.43656 l -61.42857,0 z"
       sodipodi:ry="61.42857"
       sodipodi:rx="61.42857"
       sodipodi:cy="184.09448"
       sodipodi:cx="812.85712"
       id="path3172"
       style="fill:#ffcc00;fill-opacity:1;fill-rule:nonzero;stroke:#ffcc00;stroke-width:1;stroke-linecap:square;stroke-linejoin:round;stroke-miterlimit:4;stroke-opacity:1;stroke-dasharray:none"
       sodipodi:type="arc" />
    <flowRoot
       transform="translate(10.571429,618.83913)"
       style="font-size:40px;font-style:normal;font-weight:normal;line-height:125%;letter-spacing:0px;word-spacing:0px;fill:#000000;fill-opacity:1;stroke:none;font-family:Sans"
       id="flowRoot3174"
       xml:space="preserve"><flowRegion
         id="flowRegion3176"><rect
           y="198.3802"
           x="640"
           height="97.142876"
           width="277.14288"
           id="rect3178" /></flowRegion><flowPara
         id="flowPara3180">{\textbf{\ce{CO}}}</flowPara></flowRoot>    <path
       sodipodi:type="arc"
       style="fill:#ffcc00;fill-opacity:1;fill-rule:nonzero;stroke:#ffcc00;stroke-width:1;stroke-linecap:square;stroke-linejoin:round;stroke-miterlimit:4;stroke-opacity:1;stroke-dasharray:none"
       id="path3182"
       sodipodi:cx="812.85712"
       sodipodi:cy="184.09448"
       sodipodi:rx="61.42857"
       sodipodi:ry="61.42857"
       d="m 856.29368,227.53104 c -23.98935,23.98935 -62.88377,23.98935 -86.87312,0 -23.98935,-23.98935 -23.98935,-62.88377 0,-86.87312 23.98935,-23.98934 62.88377,-23.98934 86.87311,0 11.5201,11.5201 17.99202,27.14469 17.99202,43.43656 l -61.42857,0 z"
       transform="matrix(-0.08909085,-1.2774282,1.3816245,-0.14065271,212.06334,1953.4681)"
       sodipodi:start="0.78539816"
       sodipodi:end="6.2831853" />
    <flowRoot
       xml:space="preserve"
       id="flowRoot3184"
       style="font-size:40px;font-style:normal;font-weight:normal;line-height:125%;letter-spacing:0px;word-spacing:0px;fill:#000000;fill-opacity:1;stroke:none;font-family:Sans"
       transform="translate(84,354.2677)"><flowRegion
         id="flowRegion3186"><rect
           id="rect3188"
           width="264.28571"
           height="144.28569"
           x="264.28571"
           y="548.38019" /></flowRegion><flowPara
         id="flowPara3190">{\textbf{NO}}</flowPara></flowRoot>    <path
       sodipodi:end="6.2831853"
       sodipodi:start="0.78539816"
       transform="matrix(0.54043533,1.1609003,-1.2397366,0.62587725,258.93519,-613.65122)"
       d="m 856.29368,227.53104 c -23.98935,23.98935 -62.88377,23.98935 -86.87312,0 -23.98935,-23.98935 -23.98935,-62.88377 0,-86.87312 23.98935,-23.98934 62.88377,-23.98934 86.87311,0 11.5201,11.5201 17.99202,27.14469 17.99202,43.43656 l -61.42857,0 z"
       sodipodi:ry="61.42857"
       sodipodi:rx="61.42857"
       sodipodi:cy="184.09448"
       sodipodi:cx="812.85712"
       id="path3192"
       style="fill:#ffcc00;fill-opacity:1;fill-rule:nonzero;stroke:#ffcc00;stroke-width:1;stroke-linecap:square;stroke-linejoin:round;stroke-miterlimit:4;stroke-opacity:1;stroke-dasharray:none"
       sodipodi:type="arc" />
    <flowRoot
       xml:space="preserve"
       id="flowRoot3194"
       style="font-size:40px;font-style:normal;font-weight:normal;line-height:125%;letter-spacing:0px;word-spacing:0px;fill:#000000;fill-opacity:1;stroke:none;font-family:Sans"
       transform="translate(38,282.2677)"><flowRegion
         id="flowRegion3196"><rect
           id="rect3198"
           width="281.42856"
           height="121.42857"
           x="380"
           y="114.09448" /></flowRegion><flowPara
         id="flowPara3200">{\textbf{NO2}}</flowPara></flowRoot>    <path
       sodipodi:end="6.2831853"
       sodipodi:start="0.78539816"
       transform="matrix(1.242838,-0.3084051,0.37718998,1.3365616,-829.68206,659.84737)"
       d="m 856.29368,227.53104 c -23.98935,23.98935 -62.88377,23.98935 -86.87312,0 -23.98935,-23.98935 -23.98935,-62.88377 0,-86.87312 23.98935,-23.98934 62.88377,-23.98934 86.87311,0 11.5201,11.5201 17.99202,27.14469 17.99202,43.43656 l -61.42857,0 z"
       sodipodi:ry="61.42857"
       sodipodi:rx="61.42857"
       sodipodi:cy="184.09448"
       sodipodi:cx="812.85712"
       id="path3202"
       style="fill:#ffcc00;fill-opacity:1;fill-rule:nonzero;stroke:#ffcc00;stroke-width:1;stroke-linecap:square;stroke-linejoin:round;stroke-miterlimit:4;stroke-opacity:1;stroke-dasharray:none"
       sodipodi:type="arc" />
    <flowRoot
       xml:space="preserve"
       id="flowRoot3204"
       style="font-size:40px;font-style:normal;font-weight:normal;line-height:125%;letter-spacing:0px;word-spacing:0px;fill:#000000;fill-opacity:1;stroke:none;font-family:Sans"
       transform="translate(70,292.2677)"><flowRegion
         id="flowRegion3206"><rect
           id="rect3208"
           width="325.71429"
           height="131.42859"
           x="124.28571"
           y="294.09448" /></flowRegion><flowPara
         id="flowPara3210">{\textbf{\ce{C5H8}}}</flowPara></flowRoot>    <path
       sodipodi:type="arc"
       style="fill:#008000;fill-opacity:1;fill-rule:nonzero;stroke:#008000;stroke-width:1;stroke-linecap:square;stroke-linejoin:round;stroke-miterlimit:4;stroke-opacity:1;stroke-dasharray:none"
       id="path3222"
       sodipodi:cx="812.85712"
       sodipodi:cy="184.09448"
       sodipodi:rx="61.42857"
       sodipodi:ry="61.42857"
       d="m 856.29368,227.53104 c -23.98935,23.98935 -62.88377,23.98935 -86.87312,0 -23.98935,-23.98935 -23.98935,-62.88377 0,-86.87312 23.98935,-23.98934 62.88377,-23.98934 86.87311,0 11.5201,11.5201 17.99202,27.14469 17.99202,43.43656 l -61.42857,0 z"
       transform="matrix(-0.71903327,0.85143047,-0.94774023,-0.75003268,1639.7678,9.4806085)"
       sodipodi:start="0.78539816"
       sodipodi:end="6.2831853" />
    <flowRoot
       xml:space="preserve"
       id="flowRoot3224"
       style="font-size:40px;font-style:normal;font-weight:normal;line-height:125%;letter-spacing:0px;word-spacing:0px;fill:#ffffff;fill-opacity:1;stroke:none;font-family:Sans"
       transform="translate(-32,348.2677)"><flowRegion
         id="flowRegion3226"><rect
           id="rect3228"
           width="212.85716"
           height="170"
           x="847.14288"
           y="179.80876"
           style="fill:#ffffff" /></flowRegion><flowPara
         id="flowPara3230">{\textbf{HCHO}}</flowPara></flowRoot>    <path
       sodipodi:end="6.2831853"
       sodipodi:start="0.78539816"
       transform="matrix(-0.36653227,1.0524242,-1.1534484,-0.36099508,1287.1063,-349.51845)"
       d="m 856.29368,227.53104 c -23.98935,23.98935 -62.88377,23.98935 -86.87312,0 -23.98935,-23.98935 -23.98935,-62.88377 0,-86.87312 23.98935,-23.98934 62.88377,-23.98934 86.87311,0 11.5201,11.5201 17.99202,27.14469 17.99202,43.43656 l -61.42857,0 z"
       sodipodi:ry="61.42857"
       sodipodi:rx="61.42857"
       sodipodi:cy="184.09448"
       sodipodi:cx="812.85712"
       id="path3232"
       style="fill:#008000;fill-opacity:1;fill-rule:nonzero;stroke:#008000;stroke-width:1;stroke-linecap:square;stroke-linejoin:round;stroke-miterlimit:4;stroke-opacity:1;stroke-dasharray:none"
       sodipodi:type="arc" />
    <flowRoot
       xml:space="preserve"
       id="flowRoot3214"
       style="font-size:40px;font-style:normal;font-weight:normal;line-height:125%;letter-spacing:0px;word-spacing:0px;fill:#ffffff;fill-opacity:1;stroke:none;font-family:Sans"
       transform="translate(-32,360.2677)"><flowRegion
         id="flowRegion3216"><rect
           id="rect3218"
           width="258.57144"
           height="67.14286"
           x="770"
           y="29.808767"
           style="fill:#ffffff" /></flowRegion><flowPara
         id="flowPara3220">{\textbf{CO}}</flowPara></flowRoot>    <path
       sodipodi:type="arc"
       style="fill:#008000;fill-opacity:1;fill-rule:nonzero;stroke:#008000;stroke-width:1;stroke-linecap:square;stroke-linejoin:round;stroke-miterlimit:4;stroke-opacity:1;stroke-dasharray:none"
       id="path3234"
       sodipodi:cx="812.85712"
       sodipodi:cy="184.09448"
       sodipodi:rx="61.42857"
       sodipodi:ry="61.42857"
       d="m 856.29368,227.53104 c -23.98935,23.98935 -62.88377,23.98935 -86.87312,0 -23.98935,-23.98935 -23.98935,-62.88377 0,-86.87312 23.98935,-23.98934 62.88377,-23.98934 86.87311,0 11.5201,11.5201 17.99202,27.14469 17.99202,43.43656 l -61.42857,0 z"
       transform="matrix(0.92217148,0.62573346,-0.64645707,1.0212022,-423.67073,-235.15116)"
       sodipodi:start="0.78539816"
       sodipodi:end="6.2831853" />
    <flowRoot
       xml:space="preserve"
       id="flowRoot3236"
       style="font-size:40px;font-style:normal;font-weight:normal;line-height:125%;letter-spacing:0px;word-spacing:0px;fill:#ffffff;fill-opacity:1;stroke:none;font-family:Sans"
       transform="translate(58,346.2677)"><flowRegion
         id="flowRegion3238"><rect
           id="rect3240"
           width="258.57144"
           height="151.42857"
           x="87.14286"
           y="81.237343"
           style="fill:#ffffff" /></flowRegion><flowPara
         id="flowPara3242">{\textbf{MACR}}</flowPara></flowRoot>    <path
       sodipodi:end="6.2831853"
       sodipodi:start="0.78539816"
       transform="matrix(1.1100287,-0.09888831,0.14549645,1.1998298,-858.16665,478.97675)"
       d="m 856.29368,227.53104 c -23.98935,23.98935 -62.88377,23.98935 -86.87312,0 -23.98935,-23.98935 -23.98935,-62.88377 0,-86.87312 23.98935,-23.98934 62.88377,-23.98934 86.87311,0 11.5201,11.5201 17.99202,27.14469 17.99202,43.43656 l -61.42857,0 z"
       sodipodi:ry="61.42857"
       sodipodi:rx="61.42857"
       sodipodi:cy="184.09448"
       sodipodi:cx="812.85712"
       id="path3244"
       style="fill:#008000;fill-opacity:1;fill-rule:nonzero;stroke:#008000;stroke-width:1;stroke-linecap:square;stroke-linejoin:round;stroke-miterlimit:4;stroke-opacity:1;stroke-dasharray:none"
       sodipodi:type="arc" />
    <flowRoot
       xml:space="preserve"
       id="flowRoot3246"
       style="font-size:40px;font-style:normal;font-weight:normal;line-height:125%;letter-spacing:0px;word-spacing:0px;fill:#ffffff;fill-opacity:1;stroke:none;font-family:Sans"
       transform="translate(-34,334.2677)"><flowRegion
         id="flowRegion3248"><rect
           id="rect3250"
           width="225.71428"
           height="142.85715"
           x="38.57143"
           y="249.80876"
           style="fill:#ffffff" /></flowRegion><flowPara
         id="flowPara3252">{\textbf{HCHO}}</flowPara></flowRoot>    <path
       sodipodi:type="arc"
       style="fill:#008000;fill-opacity:1;fill-rule:nonzero;stroke:#008000;stroke-width:1;stroke-linecap:square;stroke-linejoin:round;stroke-miterlimit:4;stroke-opacity:1;stroke-dasharray:none"
       id="path3254"
       sodipodi:cx="812.85712"
       sodipodi:cy="184.09448"
       sodipodi:rx="61.42857"
       sodipodi:ry="61.42857"
       d="m 856.29368,227.53104 c -23.98935,23.98935 -62.88377,23.98935 -86.87312,0 -23.98935,-23.98935 -23.98935,-62.88377 0,-86.87312 23.98935,-23.98934 62.88377,-23.98934 86.87311,0 11.5201,11.5201 17.99202,27.14469 17.99202,43.43656 l -61.42857,0 z"
       transform="matrix(0.73788377,-0.83514677,0.93073969,0.77102808,-662.22523,1334.3891)"
       sodipodi:start="0.78539816"
       sodipodi:end="6.2831853" />
    <flowRoot
       xml:space="preserve"
       id="flowRoot3256"
       style="font-size:40px;font-style:normal;font-weight:normal;line-height:125%;letter-spacing:0px;word-spacing:0px;fill:#ffffff;fill-opacity:1;stroke:none;font-family:Sans"
       transform="translate(8,380.2677)"><flowRegion
         id="flowRegion3258"><rect
           id="rect3260"
           width="260"
           height="138.57143"
           x="44.285713"
           y="429.80878"
           style="fill:#ffffff" /></flowRegion><flowPara
         id="flowPara3262">{\textbf{MVK}}</flowPara></flowRoot>  </g>
</svg>
